/* XPM */
static char *_717_b15b3be8469963242fb0ef81757dc9631676f252d96c749b862aac84e983ff09[] = {
/* columns rows colors chars-per-pixel */
"64 64 256 2 ",
"   c #010203",
".  c #02050B",
"X  c #04090D",
"o  c #080A0D",
"O  c #010313",
"+  c #040B14",
"@  c #01021C",
"#  c #030C1C",
"$  c #090C16",
"%  c #07121A",
"&  c #11161B",
"*  c #010423",
"=  c #010C24",
"-  c #010D2A",
";  c #050A29",
":  c #021124",
">  c #02122C",
",  c #0A1428",
"<  c #131629",
"1  c #010D31",
"2  c #020A37",
"3  c #021233",
"4  c #02143B",
"5  c #091838",
"6  c #141B38",
"7  c #150C25",
"8  c #2C0C29",
"9  c #1D242B",
"0  c #1B233A",
"q  c #0F233C",
"w  c #24282C",
"e  c #2A2D32",
"r  c #232B34",
"t  c #2C3338",
"y  c #33353A",
"u  c #3A3A3E",
"i  c #34353A",
"p  c #54020D",
"a  c #670004",
"s  c #770006",
"d  c #780019",
"f  c #6E041A",
"g  c #543217",
"h  c #673B1C",
"j  c #6A3B0B",
"k  c #580B24",
"l  c #77142E",
"z  c #583725",
"x  c #533B35",
"c  c #64382C",
"v  c #714517",
"b  c #5C432D",
"n  c #6A4529",
"m  c #754A28",
"M  c #79522B",
"N  c #694938",
"B  c #744A37",
"V  c #7A5537",
"C  c #6D5435",
"Z  c #7F613F",
"A  c #031B44",
"S  c #061B45",
"D  c #101B46",
"F  c #0A2049",
"G  c #182447",
"H  c #192954",
"J  c #172F49",
"K  c #262B49",
"L  c #2A3548",
"P  c #3D3D42",
"I  c #343C45",
"U  c #232D56",
"Y  c #293359",
"T  c #34385A",
"R  c #2A3764",
"E  c #343C66",
"W  c #333F73",
"Q  c #193562",
"!  c #4E3848",
"~  c #69375E",
"^  c #3A444A",
"/  c #384A54",
"(  c #344E5C",
")  c #3B4369",
"_  c #3B4676",
"`  c #304A70",
"'  c #434345",
"]  c #4A4B4C",
"[  c #45474B",
"{  c #4C4D52",
"}  c #444A54",
"|  c #49535A",
" . c #535355",
".. c #53565B",
"X. c #55595D",
"o. c #5B5B5C",
"O. c #595858",
"+. c #514C4D",
"@. c #6A5848",
"#. c #7A5848",
"$. c #785B52",
"%. c #704E47",
"&. c #65625D",
"*. c #796451",
"=. c #43476B",
"-. c #435562",
";. c #455965",
":. c #4B5B62",
">. c #465B69",
",. c #4A5C6A",
"<. c #545C62",
"1. c #5C5D62",
"2. c #555C6B",
"3. c #464B77",
"4. c #4D527B",
"5. c #56587B",
"6. c #705370",
"7. c #4B616E",
"8. c #5B6268",
"9. c #4C6473",
"0. c #526673",
"q. c #5E6975",
"w. c #5E717F",
"e. c #636364",
"r. c #6A6966",
"t. c #6C6C6C",
"y. c #666768",
"u. c #736E6B",
"i. c #776D65",
"p. c #74726E",
"a. c #7A746E",
"s. c #7D7267",
"d. c #646C74",
"f. c #7B7672",
"g. c #787877",
"h. c #6A7377",
"j. c #58615E",
"k. c #36413B",
"l. c #870009",
"z. c #87001A",
"x. c #96001B",
"c. c #91000E",
"v. c #8E0124",
"b. c #850121",
"n. c #920024",
"m. c #970129",
"M. c #8E0C33",
"N. c #844C36",
"B. c #865639",
"V. c #83502B",
"C. c #A06338",
"Z. c #822E55",
"A. c #865946",
"S. c #8B5C4E",
"D. c #89654A",
"F. c #886758",
"G. c #956757",
"H. c #966E4F",
"J. c #A86A56",
"K. c #B27255",
"L. c #87776A",
"P. c #847C74",
"I. c #877C76",
"U. c #906E69",
"Y. c #AB776B",
"T. c #86436E",
"R. c #C6744F",
"E. c #C16A3F",
"W. c #8D847B",
"Q. c #898278",
"!. c #94877B",
"~. c #9E8A6F",
"^. c #B58866",
"/. c #AE8A70",
"(. c #AE8152",
"). c #CC916D",
"_. c #D7A879",
"`. c #DC9F6E",
"'. c #375086",
"]. c #3F67A2",
"[. c #495484",
"{. c #555985",
"}. c #535B94",
"|. c #5C6787",
" X c #5C6495",
".X c #5C7386",
"XX c #787985",
"oX c #676B9A",
"OX c #6B6E8D",
"+X c #5771AC",
"@X c #666CA3",
"#X c #6C75A6",
"$X c #7679AA",
"%X c #787CB5",
"&X c #637BB9",
"*X c #615885",
"=X c #7A7EC5",
"-X c #846592",
";X c #7A8195",
":X c #7B83B8",
">X c #6B84B9",
",X c #7798D8",
"<X c #718EC9",
"1X c #7AADEB",
"2X c #7CA1DD",
"3X c #8A8584",
"4X c #948B82",
"5X c #968E88",
"6X c #9D958C",
"7X c #96908A",
"8X c #9C9693",
"9X c #8B8998",
"0X c #A5978C",
"qX c #A49992",
"wX c #B19689",
"eX c #B7A798",
"rX c #8385B8",
"tX c #8F95AF",
"yX c #B9ACA9",
"uX c #98A2BE",
"iX c #D2AC8F",
"pX c #E5B589",
"aX c #EAB995",
"sX c #E5AD8D",
"dX c #CFB3A7",
"fX c #D1A698",
"gX c #ECC59C",
"hX c #DAC3B2",
"jX c #ECC8A7",
"kX c #F6D8B8",
"lX c #EFCCAE",
"zX c #F8E1BF",
"xX c #8A8CC4",
"cX c #8798C8",
"vX c #9698C9",
"bX c #859CD7",
"nX c #9598D5",
"mX c #90A8D3",
"MX c #A6ACD3",
"NX c #8CB1EA",
"BX c #A7AFE5",
"VX c #939DD4",
"CX c #ABCBF2",
"ZX c #8EC5FE",
"AX c #DACECC",
"SX c #F3D9C9",
"DX c #FBE5C9",
"FX c #FBEBD9",
"GX c #FFF6D9",
"HX c #F6EBD2",
"JX c #FEF7E8",
"KX c #FEFCF3",
"LX c #FFFEFD",
"PX c #FDF6F2",
"IX c #F7E9E4",
"UX c #CDD0EB",
/* pixels */
">.>.>.,.d.g.4X7X6X6X6X6X6X8X6X8X6X8X6X8X8X!.f.r.j.( J ( ( 0.h.3X8XqX6X0XqX!.a.P.eXhX8Xg.g.a.a.p.u.p.r.u.u.r.r.&.O.O. .] ' b I I ",
">.>.-.,.d.XX4X7X6X6X6X6X6X6X6XqX8X6X6X8X6X7XQ.t.^ | 6XqXdXkXGXKXKXLXPXGXFXIXAXAXGXDXhX~.a.p.p.p.u.i.u.i.i.r.r.&.o.O.+.+.' ' u u ",
">.>.;.,.d.Q.4X6X0X6X0X6XqX6XqXqX8X8X8X8X8X!.p.| t.DXGXHXGXGXGXJXKXKXLXLXJXKXKXJXHXgXpXiXW.p.p.a.a.p.p.u.p.i.r.&.&.O. .] ^ b u i ",
">.>.;.,.d.g.3X4X4X7X7X7X7X7X7X7X7X7X7X7XQ.;Xg.!.HXKXJXKXLXLXPXKXLXLXKXPXJXFXGXHXDXlXgXeXQ.h.t.p.u.u.t.u.t.t.y.e.&.o.O. .| } ^ ^ ",
">.>.>.>.0.d.h.g.h.g.g.g.;Xg.XXg.g.XXXXg.h.eXHXKXJXDXDXFXJXKXKXKXJXPXPXKXJXJXGXzXkXDXSXeXf.q.q.q.q.d.d.q.d.q.8.8.0.8.8.8.>.;.-.-.",
">.>.7.9.7.7.0.7.0.0.0.0.7.8.0.9.0.7.0.7.h.dXHXGXHXkXzXDXkXFXFXFXFXPXJXJXLXLXHXgXgXlXhXeXg.7.7.0.9.0.0.0.0.0.0.0.0.0.9.9.7.9.,.9.",
">.>.;.( ;.;.:.:.7.7.;.;.( 7.7.7.7.7.>.( XXHXzXzXkXlXkXlXzXDXFXGXJXJXGXGXGXkXgXlXzXjXiX;X7.;.7.7.,.7.7.7.,.7.0.7.9.9.7.9.9.9.0.0.",
">.;.| | | <.8.8.j.j.8.8.e.j.8.j.8.j.:.j.pXzXgXgXgXgXpXpXaXpXaXlXSXkXDXkX`.E.)._.jXzXSX8X| | ;.X.:.:.<.:.:.:.:.7.:.;.7.;.| :.;.>.",
"7.:./ | j.t.a.f.f.f.g.f.f.g.f.f.a.a.t.Q.pX_._._._._.aXsXsXsXjXlXkXkXaX).R.E.E.K.^.jXlXqXp.1.8.o.o.o.o.o.j.o.....O.| | ] ] ] ^ ] ",
";.| ^ ] &.f.W.!.!.!.4X!.!.!.!.Q.W.W.I.!.).(.(.).pX_.gXlXaXlXlXlXpX`.R.K.K.K.J.K.K.^.iX6XL.r.r.e.r.e.e.e.e.e.&.o.O. .+.] [ ' P k.",
";.| ^ [ j.f.W.4X7X7X4X7X7X!.!.!.!.4X3X~.V.Z `.pXpXpXsXaXaX`.R.R.E.R.`.).).R.R.K.G.Y./.~.P.t.r.r.r.r.r.r.r.e.&.o.O.O.] ] ' u u y ",
"7.( ^ k.O.p.Q.W.!.!.!.!.!.W.W.W.W.Q.W.~.H.D.^._.sX`.`.sX).R.E.R.lXsXK.Y.Y.K.J.G.H.^.K.L.a.u.r.e.e.e.e.r.r.e.e.&.O.O.+.] [ u i y ",
"7./ ^ k. .u.f.!.W.Q.W.~.!.W.!.Q.Q.Q.P.wX_.b z H.iXwX).Y.J.R.aXIXIXwXJ.Y.G.G.H.^.^.^.~.L.a.e.y.y.e.e.e.r.e.e.e.o.O.O.] ] ' I I t ",
"7.-./ ^ ..r.f.Q.W.Q.Q.Q.Q.!.Q.Q.Q.P.a.!.~.z g S././.J.R.fXLXLXfXZ.S.).H.B.A.V Z D.K.^.~.a.r.y.e.e.e.e.e.e.e.j.o.X.O.{ ] ' b i y ",
";.;./ / | r.f.Q.I.I.I.Q.!.Q.Q.Q.I.L.f.P.C g z %.S.wXdXLXLXSXJ.A.C.G.V z m J.A.x @.@.D.Q.p.y.&.e.e.e.e.e.e.&.j.o.O. .{ ] ' u u y ",
";.;./ ^ ..y.a.f.P.P.I.Q.I.P.L.L.L.L.P.W.C %./.wXdXPXLXPXfXB.B.B.N.%.N ! B J.J.+.N C D.L.u.e.e.e.e.e.e.e.e.e.&.X.O. .+.] ' ! i i ",
">.;./ / j.y.p.g.P.P.I.Q.L.L.L.L.L.~.!.F./.FXLXLXLXLXhXY.A.N.V.m B n c A.S.B.J.S.%.A.D.L.e.e.e.e.e.e.e.e.e.e.1.o. . .{ [ ! P P y ",
">.;.-.( j.t.p.g.g.P.Q.f.a.s.L.*.L.L.F.~.FXLXLXLXIXfXS.D.B.B.N.M m B $.N.N.B J.G.$.G.S.i.q.e.e.8.e.e.&.&.e.e.&.o.O. .+.] ' P i y ",
">.>.( | 7.t.p.f.f.f.P.s.*.@.$.*.@.b ~.IXLXLXPXhXY.F.S.A.N.N.C.N.B A.G.A.h h S.G.N.A.B.$.t.y.y.e.e.1.e.e.e.e.&.o.O...+.[ ' P i y ",
">.>.;.-.8.t.p.f.g.f.f.P.P.P.r.x b fXLXLXLXIXfXU.H.G.S.N.m V.m N.B.N.A.h h h m V j j M *.d.r.y.y.e.e.e.e.e.e.1.o.O...+.[ ' P y e ",
">.>.| -.7.y.t.p.h.g.4XqXdXeX!.U.AXLXLXLXSXwXF.U.A.S.A.B m m h V.B.B.V.v z h h N b g v #.d.y.y.e.e.e.e.e.e.1.1.o.O. .+.[ ' I y e ",
"7.,.( >.7.y.t.p.g.Q.6XyXyXqXhXLXLXLXHXfXU.U.~.#.%.S.A.%.N.c m V.N.B.V.A.#.%.A.B $.N v A.d.y.y.e.e.e.e.&.e.1.1.1.O. .{ ' P P y e ",
">.>.( ;.8.8.t.t.g.Q.qXyXvXIXLXLXIXfX~.U.U.L.*.%.J.S.c %.%.c v m B.V.N.S.S.A.B N B n M B.6.8.e.e.1.e.e.1.e.1.o.O...{ ] ' ! u y w ",
">.;.| ;.7.8.y.y.*.-XvXcX=XUXPXdXU.U.U.H.H.#.F.U.A.B c B %.n h N.D.V.M V n $.A.F.*.n M D.y.8.e.e.1.1.1.1.1.1.o.O. .+.[ ^ u i t e ",
",.;.-.-.8.8. .&.9XvXcXxX%XcXAXU.U.Y.U.S.D.$.*.&.N N x c N B c M B.D.V m n V B.M B B m #.8.8.1.1.1.1.1.O.1.O.O...{ { [ ! I i t e ",
">.;.-.;./ 8.;XvXVXxXxXxX%X}.UXdXF.S.V #.*.N ^ 6 } %.%.z z N n m V.C.A.V N.m c %.$.$.B.#.8.j.1.1.1.o.1.1.1.<.O...{ { [ ' P y t w ",
">.>.( / |.vXBXxXxXrX%X%X$X%XxXAX*.b b n c 2.F . [.XXz c z z N n M V.V B.A.B #.F.F.F.V @.8.1.1.1.1.1.1.1.1..... .{ ] ! P u i e e ",
";./ / OXMXnXrX:X-X=X XOXxX%X2 [ yX@.C N 9X=X2 @ 5 <X6.g c z z n v V.M M B.A.B.S.D.M V 1.8.1.<.<.1.1.O.<.1. ...{ { } ' P i e e w ",
"/ .XvXMXxX$X%XrX<X#X2.d.$X6 . @ & 2.MXvXBXvXD 2 . E NXe.g h N b n m v n m B.B.V M m o.2.o.1.1.....1......... .{ +.[ ' P i e e w ",
"#XBXnX:XrXrX%XoX$Xy.P 3.7 O 3 .   T oXrXrXMX3.* 1 . @XZX-Xz g C N n n m n m C v M e.0.1.......2...<.1....... .{ +.[ ^ P i y e w ",
"MXvXoX$XrX$X{.*Xy.} ) 6 @ ,   , $XrX=.5.-XvX$X2 2 . 0 bXCXuX@.v C C C M m C v n {.5. .2.2.......2......... .| { } [ P I i e e w ",
"%XoX X$XoX{.|.h.< D < @ :   < T 4.$XvXoXvXrXnX=.@ * O  XmXBXMXQ.N N C C m v H.:XS =.u.+.{ ..................| } / ! P P i e w w ",
"oX{.*X4.) {.$XY 3 = = %   < {.T r =.rXvXrXvXMX$X- * O K cXmXMXMXI.B C n h F.MXCX0 2 rXOX0.] ] ........| ....| } } } ^ P I t e w ",
"{.4.3.=.[.$X@XU ; : $   . =.#X3.K T 5.rX5.T $X:XG * * @ .XmXMXmXCX9X@.*.8XCXBXCX|.. 3.=X$X#X|...]  .:...| ..| { / ! ^ I t t w w ",
"4.E E {.@X{.6 @ + o o . Y *X*X|.T K T $X{.7 4.oXK @ > . Y cXvXCXvXc f f U.CXCX<X4.* D  X X@X:X#X|. .] | -.| | | } / ^ P y t w w ",
") Y =.{.E ; . + o + * < 4.{. X{.{.K 6 K =.3.|.-X=.* : @ , >XNX9Xa s s s a i.CX2X'.1 * '.@X{.[. X@X#X|. .{ | | { } } P I I e w w ",
"5 U T 6 @ O % # : > @ U =.4.{.3.oX}.3   7 T 5.%X XD @ ; O [.NX+.p a d z.f x cXNX+XD * H @XoX3._ 3.}. XoX2.} | | / ^ ^ ^ t t r w ",
"@ 5 > * % $ % : % : . , Y =.! W oX-X=.O   K {.5.|.K * 1 O U :XOX9.k s z.*X.XXXNX<XR * 4 '. XE _ 3._ W }.@X0.} } } ^ ^ I L t w w ",
"= - # % X + X X . . .   , U T T 5.%XrXR   & 3.3.{.R * ; = * oXnX<X! a d 9XmXrXcX,X'.* 4 Q Y H _ 3._ R R _  X X-.k.^ ^ I t t r w ",
": # o X + # : > 9 . . . O ; r T =.*X$X%XY   L {.5.3.- ; 3 O _ bX&Xk a s -X2XcXcXNX X* 3 S _ 3.3.[.W H H U W }.+X5.I I ^ t t r 9 ",
"# # + > > > = O T 9   . O O 5 G T =.}.-XxX< o 3.3.{.6 * ; * F <X Xp s s -X,XbXbX,X&X2 2 A R [.4.[.` H 4 6 H Y ` %X0.t I t t 9 9 ",
"> 3 > > = = &   < Y O . . @ - 3 6 Y =.oXxX X  L [.5.T * - ; 1 +XoXa d a T.NXcXbX,X,XH * A H }.'.W ) H 4 4 D G F [.#Xt t L r 9 9 ",
"% # + + X O K &   0 6 O O + = # = 5 L 3.oXxXr . 3.4.3.; ; - @ +XoXa d s M.<XbXbXbX2X` @ A 4 tXyX3.W H A 4 5 F 5 H 4.L e 9 r 9 9 ",
"X + X o + G 6 6   @ ; @ # + @ = = = , K =.$X#X. K [.4.D * - @ ` OXp d v.c.6.1XbXNXNX'.@ 4 S T -X5.S R S S 5 5 - 3 Y I { ^ ^ } | ",
"% + # #   < G , + . 6 , O # = # = = = - 6 =.xX3.o 3.{.Y * - * F ~ a d z.x.M.rXmXBX2X].* 2 F S D G D R D A 4 3 - 5 G ^ w.d.q.d.h.",
"# = + # .   6 6 @ . G E 3 , @ : = = = = ; 6 3.rX0 6 {.=.1 = > 4 y a d n.m.l.OXNXBXbX&XD * S S W E 5 R H F D 3 > , : J ;X.XXX;Xw.",
"+ X @ + .   + > ; + ; =. X3.@ @ = = : = = = 6 {.@X9 =.4.G * - 3 8 d d v.m.c.Z.NXNXbX<XH * A A H _ 4 W H S F 4 - % = J ;Xw.w.0.w.",
"X . + + .     # = ; * 6 4.@XR O = : = = = = * ; [.3.r {.E * - > ; p d z.m.m.v.xXNX2X,XQ @ A A A H H W R H F 4 1 # @ F ;.;.( ( ( ",
"+ O # .   +   X # = = @ 5 3.oXH @ = = - - = - # = R L ) _ 3 ; = 4 p z.b.m.m.c.-XZX,X,X_ * A A A F R _ R H F 4 3 = * F ^ J t J t ",
"# # . .   o + O + : - # O , =.@XH @ = - = > - : * - , K {.G @ ; 3 8 d x.m.x.c.~ NX2X,X[.* 2 A A 4 Y _ R H F 4 3 # > , % % % % % ",
"# X       X + + $ # = = # O @ E oXG @ ; - - - : = = * , =.R * - 1 ; f z.m.m.n.z.rXNX<X+X2 2 A 2 2 R 3.R H H A 3 = - , .   . X X ",
"$ .       . + + # + = - = # . O U oXU @ : - = - - = = O K 3.5 ; = 3 k x.n.m.m.l.OXZX,X&X5 1 A A 2 H '.R H H F 3 * > % X X X X X ",
"X         X X + + + = - - = # O O U  XG O = - - - - = + # ) G ; - 3 8 c.v.m.n.l.~ 1X,X>XD - A A 4 S ` E H H S 3 % q 5 . X X . X ",
".     X . X + o + + # = - = = $ + O U }.G @ : - > = = #   K R - - 1 8 z.v.m.m.z.M.bX,X<XH ; A 4 A 4 R _ H H A 4 # : 5 o X X X . ",
"o     o X o X o + + # # > - = # # O @ Y }.5 O - = - - = . $ U 5 - - 7 z.v.m.n.z.z.:X1X<XU * 4 4 2 4 D R D H F 3 : 4 q . X X X . ",
"&   o o X o X + # + # # : - * - # # + * U [.1 @ = - > = @   6 F ; 1 , d x.m.n.z.l.oX1X<XH * 4 4 4 3 4 4 4 S A 4 > S F . X X X X ",
"& X X X X o + + + + # # = - - = - + + + @ Y _ - # = : = *   $ D = - - f n.m.v.b.l.6.NX>XH * 4 4 3 4 4 5 4 5 J 5 1 4 q X . X + . ",
"& % X o o + % + % # # # # > - - = = = # + @ U U * = = > # . . 3 2 - 1 p n.n.v.b.c.~ 1X>XG * 3 4 3 3 - > 5 4 q 5 = : 5 % . X . . ",
"& & + . + % # + # # : # # : - - = - = + = ; * G 5 @ - = - @   # 4 - - k x.m.v.b.l.l ,X>X5 ; 2 3 3 = : > 3 3 A 3 + # 5 %   X X . ",
"X 9 + o + # # % # # # % # = : - = ; - + # # = > 5 = = - > # .   3 3 - 8 x.n.v.b.d k >X>X5 - 3 3 > - > 3 3 4 F , + > , ,   X X X ",
"X & + X % # # # # # # # # # : - - - - = # + = - 4 1 * = - : #   + 3 > 8 z.n.n.z.z.s @X+X1 - 3 3 - - - 3 4 4 F % + 3 , , . . . X ",
"  + + + : % + # = = # 7 = # # = - = - = # + + = 1 3 - = = = = . . - > 7 d m.n.b.d s *X}.@ - > 3 3 3 > 3 3 4 3 % + , , :   X . X ",
"X % $ % : + % # # # # : # = # = = - - ; = # # # = > - * ; - = +   @ 3 ; d x.v.b.d s =.'.@ - > - 3 3 3 - > 3 4 + O : , %   X X X ",
"  % % : : + = ; # : # = # % # = = = - = = = + + + > 1 - * = = @   . 2 - k n.v.b.d s ~ Q @ > - - 3 3 - : > 3 : X X > , % X . .   "
};
